<?xml version="1.0" encoding="utf-8"?>
<!-- Generator: Adobe Illustrator 25.0.1, SVG Export Plug-In . SVG Version: 6.00 Build 0)  -->
<svg version="1.1" id="Capa_1" xmlns="http://www.w3.org/2000/svg" xmlns:xlink="http://www.w3.org/1999/xlink" x="0px" y="0px"
	 viewBox="0 0 50 50" style="enable-background:new 0 0 50 50;" xml:space="preserve">
<style type="text/css">
	.st0{fill:#1A171C;}
	.st1{fill:none;stroke:#1A171C;stroke-width:0.744;stroke-miterlimit:3.8640001;}
	.st2{fill:#E2001A;}
	.st3{fill-rule:evenodd;clip-rule:evenodd;fill:#FFFFFF;}
	.st4{fill-rule:evenodd;clip-rule:evenodd;fill:#1A171C;}
	.st5{fill:none;stroke:#1A171C;stroke-width:0.124;stroke-miterlimit:3.8640001;}
	.st6{fill-rule:evenodd;clip-rule:evenodd;fill:#E2001A;}
	.st7{fill:#FFFFFF;}
	.st8{fill:none;stroke:#1A171C;stroke-width:0.496;stroke-miterlimit:3.8640001;}
	.st9{fill:#C19900;}
</style>
<g>
	<g>
		<path class="st0" d="M1.0886956,25.0439987c0-13.2149954,10.7109985-23.9279938,23.9259949-23.9279938
			c13.2169952,0,23.9279938,10.7129974,23.9279938,23.9279938S38.2316856,48.9720001,25.0146904,48.9720001
			C11.7996941,48.9720001,1.0886956,38.2590027,1.0886956,25.0439987"/>
		<path class="st1" d="M1.0886956,25.0439987c0-13.2149954,10.7109985-23.9279938,23.9259949-23.9279938
			c13.2169952,0,23.9279938,10.7129974,23.9279938,23.9279938S38.2316856,48.9720001,25.0146904,48.9720001
			C11.7996941,48.9720001,1.0886956,38.2590027,1.0886956,25.0439987z"/>
		<path class="st2" d="M25.1161003,41.8897018c9.2709961,0,16.7889862-7.5159988,16.7889862-16.7869949
			c0-9.2720022-7.5179901-16.7870026-16.7889862-16.7870026c-9.2710114,0-16.7870026,7.5149994-16.7870026,16.7870026
			C8.3290977,34.373703,15.845089,41.8897018,25.1161003,41.8897018"/>
		<path class="st3" d="M17.9119987,11.8487024h13.0449982c0,0,0.9759979,12.189002-6.2020111,15.3440008l-0.0309906,0.0060043
			C17.0819969,23.5967026,17.9119987,11.8487024,17.9119987,11.8487024"/>
		<path class="st4" d="M18.6766014,12.6807032h11.3729858c0,0,1.178009,9.2520056-5.2739868,13.6460028
			c0,0-3.2360077-1.2279968-4.8370056-5.8450012C18.3385887,15.8777094,18.6766014,12.6807032,18.6766014,12.6807032"/>
		<path class="st5" d="M18.6766014,12.6807032h11.3729858c0,0,1.178009,9.2520056-5.2739868,13.6460028
			c0,0-3.2360077-1.2279968-4.8370056-5.8450012C18.3385887,15.8777094,18.6766014,12.6807032,18.6766014,12.6807032z"/>
		<path class="st3" d="M20.8299065,14.4385004l0.2859955-0.0799942l0.2420044,3.4840002c0,0,1.2369995-0.5540009,3.068985-0.0270004
			c0,0,1.4780121-0.5270004,3.0930023,0.0429993l0.20401-3.4469976h0.2870026l-0.1529999,3.987998
			c0,0-1.8720093-0.8570023-3.3510132-0.0940018c0,0-1.6419983-0.7070007-3.3639984,0.026001l-0.3669891-3.9070044
			L20.8299065,14.4385004z"/>
		<path class="st5" d="M20.8299065,14.4385004l0.2859955-0.0799942l0.2420044,3.4840002c0,0,1.2369995-0.5540009,3.068985-0.0270004
			c0,0,1.4780121-0.5270004,3.0930023,0.0429993l0.20401-3.4469976h0.2870026l-0.1529999,3.987998
			c0,0-1.8720093-0.8570023-3.3510132-0.0940018c0,0-1.6419983-0.7070007-3.3639984,0.026001l-0.3669891-3.9070044
			L20.8299065,14.4385004z"/>
		<path class="st3" d="M24.5985069,14.2295008l-0.0250092,3.3130026c0,0,1.8159943-0.3970032,2.7129974,0.052002
			l0.1230011-3.0539999c0,0-0.5429993-0.5-1.7799988-0.4589996C24.7504997,14.1085062,24.5985069,14.2295008,24.5985069,14.2295008"
			/>
		<path class="st5" d="M24.5985069,14.2295008l-0.0250092,3.3130026c0,0,1.8159943-0.3970032,2.7129974,0.052002
			l0.1230011-3.0539999c0,0-0.5429993-0.5-1.7799988-0.4589996C24.7504997,14.1085062,24.5985069,14.2295008,24.5985069,14.2295008z
			"/>
		<path class="st3" d="M21.4499931,14.5010004c0,0,1.2489929-0.772995,2.8369904-0.2869949l0.026001,3.3809958
			c0,0-1.8880005-0.4609985-2.7669983-0.0279999L21.4499931,14.5010004z"/>
		<path class="st5" d="M21.4499931,14.5010004c0,0,1.2489929-0.772995,2.8369904-0.2869949l0.026001,3.3809958
			c0,0-1.8880005-0.4609985-2.7669983-0.0279999L21.4499931,14.5010004z"/>
		<path class="st6" d="M23.4021416,23.8408966c0,0-0.0213661-0.2152863-0.0272026-0.5483475
			c-0.0203876-1.1073322,0.1126461-3.5227947,1.6603966-3.9051018c2.0041161-0.4981518,1.5856209,0.6555157,1.4788113,0.7597828
			c-0.1097126,0.1052303-0.5952072,0.1187477-0.6612434,0.065649c0,0,0.1417751,0.8727322,0.5000591,1.0600224
			c0.3582973,0.1843967,0.5816212,1.6247883,0.4359798,1.8738689c0,0-0.6495991,0.4566402-1.807003,0.5618706
			C23.8264599,23.8148365,23.4021416,23.8408966,23.4021416,23.8408966"/>
		<rect x="24.4620018" y="23.2404709" class="st7" width="0.5749969" height="2.116524"/>
		<path class="st8" d="M23.1921959,23.4911957c0,0,1.0469971-1.0839996,3.6499939-0.7579956"/>
		<path class="st8" d="M23.2136955,23.8408966c0,0,1.0249939-1.125,3.6289978-0.7969971"/>
		<path class="st9" d="M24.9246025,41.9365997v0.387001c9.5410004,0,17.272995-7.7329941,17.272995-17.2739944
			c0-9.5430059-7.7319946-17.2770081-17.272995-17.2770081S7.6495934,15.5066004,7.6495934,25.0496063
			c0,9.5410004,7.7340088,17.2739944,17.2750092,17.2739944V41.9365997v-0.3889999
			c-4.5580139,0-8.6809998-1.8449936-11.6660004-4.8319931c-2.9860077-2.9860001-4.8320007-7.1090012-4.8320007-11.6660004
			c0-4.5560074,1.845993-8.6790009,4.8320007-11.6659994c2.9850006-2.9860001,7.1079865-4.8320007,11.6660004-4.8320007
			c4.5569916,0,8.6789856,1.8460007,11.6660004,4.8320007c2.9839935,2.9869986,4.8319855,7.109992,4.8319855,11.6659994
			c0,4.5569992-1.8479919,8.6800003-4.8319855,11.6660004c-2.9870148,2.9869995-7.1090088,4.8319931-11.6660004,4.8319931
			V41.9365997z"/>
		<path class="st9" d="M24.9246025,48.9501991v0.3910027c13.4160004,0,24.2889862-10.875,24.2889862-24.2910004
			S38.3406029,0.7592019,24.9246025,0.7592019s-24.2910004,10.875-24.2910004,24.2910004s10.875,24.2910004,24.2910004,24.2910004
			V48.9501991v-0.3869972c-6.4940033-0.0020027-12.3710022-2.6310005-16.625-6.8860016
			c-4.2580109-4.2579956-6.8899994-10.1329956-6.8899994-16.6269989c0-6.4950027,2.6319885-12.3710012,6.8899994-16.6269989
			c4.2539978-4.2560043,10.1309967-6.887001,16.625-6.887001c6.493988,0,12.3709869,2.6309967,16.625,6.887001
			c4.2559967,4.2559967,6.8880005,10.1319962,6.8889923,16.6269989c-0.0009918,6.4940033-2.6329956,12.3690033-6.8889923,16.6269989
			c-4.2540131,4.2550011-10.131012,6.8839989-16.625,6.8860016V48.9501991z"/>
		<path class="st3" d="M45.7331963,26.6279984c0,0-2.7910004,3.7990036-3.8320007,6.9180069
			c0,0-1.3610077-2.6860046-1.4570007-5.5200043l2.9879913-1.6439972L45.7331963,26.6279984z"/>
		<path class="st1" d="M45.7331963,26.6279984c0,0-2.7910004,3.7990036-3.8320007,6.9180069
			c0,0-1.3610077-2.6860046-1.4570007-5.5200043l2.9879913-1.6439972L45.7331963,26.6279984z"/>
		<path class="st3" d="M29.4813042,31.801796c0,0,1.8179932-1.0659943,1.8379974-1.2809982l4.5540009-0.6080017l0.5449982,1.3620071
			c0,0-1.003006,2.2889938-4.0070038,4.2149963c-3.0039978,1.9229965-5.9340057,2.0210037-5.9340057,2.0210037l-0.3399963-3.814003
			L29.4813042,31.801796z"/>
		<path class="st1" d="M29.4813042,31.801796c0,0,1.8179932-1.0659943,1.8379974-1.2809982l4.5540009-0.6080017l0.5449982,1.3620071
			c0,0-1.003006,2.2889938-4.0070038,4.2149963c-3.0039978,1.9229965-5.9340057,2.0210037-5.9340057,2.0210037l-0.3399963-3.814003
			L29.4813042,31.801796z"/>
		<path class="st3" d="M18.1043053,30.5048981l2.0739899,1.6070023l3.375,1.3769989l-0.3889923,4.352005
			c0,0-3.6240082-0.0590057-6.2050018-2.2190018c-2.57901-2.1620026-3.8840027-4.098999-3.8840027-4.098999l0.6369934-1.2890015
			L18.1043053,30.5048981z"/>
		<path class="st1" d="M18.1043053,30.5048981l2.0739899,1.6070023l3.375,1.3769989l-0.3889923,4.352005
			c0,0-3.6240082-0.0590057-6.2050018-2.2190018c-2.57901-2.1620026-3.8840027-4.098999-3.8840027-4.098999l0.6369934-1.2890015
			L18.1043053,30.5048981z"/>
		<path class="st3" d="M3.8075068,26.9112015c0,0,3.1009977,3.1800003,3.8479917,6.6910019
			c0,0,2.1950073-3.8199997,1.4900055-5.5329971l-2.8379974-1.0559998L3.8075068,26.9112015z"/>
		<path class="st1" d="M3.8075068,26.9112015c0,0,3.1009977,3.1800003,3.8479917,6.6910019
			c0,0,2.1950073-3.8199997,1.4900055-5.5329971l-2.8379974-1.0559998L3.8075068,26.9112015z"/>
		<path class="st3" d="M3.6580012,26.7958984c0,0-0.4810028-2.237999,0.9219968-4.784996
			c0,0,8.5589905,1.0100021,14.1819916,5.5780029c0,0,0.0859985,2.0179977-1.5820007,4.8279953
			c0,0-4.2139893-2.9860001-7.0659943-4.0410004C7.2209892,27.3078995,3.6580012,26.7958984,3.6580012,26.7958984"/>
		<path class="st1" d="M3.6580012,26.7958984c0,0-0.4810028-2.237999,0.9219968-4.784996
			c0,0,8.5589905,1.0100021,14.1819916,5.5780029c0,0,0.0859985,2.0179977-1.5820007,4.8279953
			c0,0-4.2139893-2.9860001-7.0659943-4.0410004C7.2209892,27.3078995,3.6580012,26.7958984,3.6580012,26.7958984z"/>
		<path class="st3" d="M20.165905,29.3448029v5.576004c0,0,3.3359985-3.3420029,9.2649994-0.0490036v-5.0899963
			c0,0-1.1870117-1.4919968-4.8730011-1.4919968C20.8698997,28.2898102,20.165905,29.3448029,20.165905,29.3448029"/>
		<path class="st1" d="M20.165905,29.3448029v5.576004c0,0,3.3359985-3.3420029,9.2649994-0.0490036v-5.0899963
			c0,0-1.1870117-1.4919968-4.8730011-1.4919968C20.8698997,28.2898102,20.165905,29.3448029,20.165905,29.3448029z"/>
		<path class="st3" d="M30.6161003,27.6747971c0,0,5.048996-5.0059967,14.094986-5.7089996
			c0,0,1.5360107,1.6680069,1.0090027,4.6990051c0,0-8.3439941,1.2740021-13.4359894,5.6189957
			c0,0-1.006012-1.8880005-1.1840057-2.5459976C30.924099,29.0808029,30.6161003,27.6747971,30.6161003,27.6747971"/>
		<path class="st1" d="M30.6161003,27.6747971c0,0,5.048996-5.0059967,14.094986-5.7089996
			c0,0,1.5360107,1.6680069,1.0090027,4.6990051c0,0-8.3439941,1.2740021-13.4359894,5.6189957
			c0,0-1.006012-1.8880005-1.1840057-2.5459976C30.924099,29.0808029,30.6161003,27.6747971,30.6161003,27.6747971z"/>
		<line class="st1" x1="17.2273979" y1="32.4482956" x2="13.0753899" y2="31.5503006"/>
		<line class="st1" x1="20.1063042" y1="35.1221008" x2="23.1312981" y2="37.7961044"/>
		<line class="st1" x1="29.4813042" y1="34.9247971" x2="26.5202904" y2="37.4517975"/>
		<line class="st1" x1="32.3171959" y1="32.2978973" x2="36.3621941" y2="31.2938995"/>
		<path class="st0" d="M26.5397911,31.8040009l-0.0159912,0.0390015c-0.0850067,0.2299957-0.0940094,0.4260025-0.029007,0.5859985
			c0.0660095,0.1600037,0.2050018,0.2789993,0.4179993,0.3570023c0.2170105,0.0800018,0.4049988,0.0800018,0.5720062,0.0039978
			c0.1640015-0.0780029,0.2870026-0.223999,0.3699951-0.4430008c0.0380096-0.1059952,0.0579987-0.2009964,0.0579987-0.284996
			c0-0.0880051-0.0179901-0.1679993-0.0559998-0.2410049c-0.0319977-0.0619965-0.1490021-0.1809998-0.3560028-0.3569946
			l-0.071991-0.0630035c-0.1370087-0.1149979-0.2189941-0.2099991-0.2429962-0.2890015
			c-0.0250092-0.0779953-0.0169983-0.1699982,0.0219879-0.2770004c0.0429993-0.1149979,0.1100006-0.1930008,0.2050018-0.2340012
			c0.0920105-0.0429993,0.1990051-0.0409927,0.3190002,0.0020065c0.1150055,0.0429993,0.1910095,0.1110001,0.2280121,0.2049942
			c0.0389862,0.0910034,0.0329895,0.2050018-0.0140076,0.3339996l-0.0090027,0.0250015l0.2360077,0.0859985l0.0119934-0.0289993
			l0.0120087-0.0299988c0.0679932-0.1829987,0.0699921-0.3470001,0-0.4899979
			c-0.0650024-0.1439972-0.1960144-0.25-0.3820038-0.3180008c-0.1970062-0.0739975-0.3710022-0.0739975-0.5230103,0
			c-0.1529999,0.0719986-0.2659912,0.2070007-0.3379974,0.4079971c-0.0390015,0.102005-0.0569916,0.1990051-0.0540009,0.2890015
			c0,0.090004,0.0250092,0.1740036,0.0680084,0.2539978c0.0269928,0.0490036,0.1190033,0.1430054,0.2829895,0.2750015
			c0.0570068,0.0530014,0.1000061,0.090004,0.1330109,0.1180038c0.1340027,0.1149979,0.2119904,0.2109985,0.2339935,0.2869949
			c0.0230103,0.0740051,0.0160065,0.1640015-0.0249939,0.2730026c-0.048996,0.1330032-0.125,0.2249985-0.2250061,0.276001
			c-0.1009979,0.0479965-0.2160034,0.0479965-0.3439941,0.0029984c-0.1399994-0.052002-0.2320099-0.1299973-0.2750092-0.2360001
			c-0.0429993-0.1069946-0.0349884-0.237999,0.0220032-0.3939972l0.029007-0.0820007l-0.2440033-0.090004L26.5397911,31.8040009z
			 M24.8717918,32.4000015l0.053009-2.1669998l0.7870026,2.1959991l0.3499908,0.012001l0.0850067-2.4499969l-0.2649994-0.0090027
			l-0.0469971,2.1029968l-0.776001-2.1329956l-0.3670044-0.0110016l-0.0859985,2.4489975L24.8717918,32.4000015z
			 M22.9717979,32.3899994c0.1539917,0.177002,0.3710022,0.2420044,0.6399994,0.1949997
			c0.2779999-0.048996,0.4570007-0.1819992,0.5419922-0.3959961c0.0870056-0.215004,0.0890045-0.5510025,0.0110016-1.0039978
			c-0.0799866-0.4550018-0.196991-0.7680054-0.3509979-0.9420013c-0.1549988-0.1740036-0.3690033-0.2360001-0.644989-0.189003
			c-0.2720032,0.0490036-0.4530029,0.1809998-0.5410004,0.4000015c-0.0860138,0.2190018-0.0880127,0.5530014-0.0100098,1.0019989
			C22.695797,31.901001,22.8137932,32.2140045,22.9717979,32.3899994 M22.867794,30.586998
			c0.048996-0.1619949,0.1630096-0.2599945,0.3440094-0.2909927c0.1839905-0.0310059,0.3239899,0.0179977,0.4219971,0.147995
			c0.0970001,0.1330032,0.1809998,0.3950043,0.25,0.7890015c0.0679932,0.3949966,0.0820007,0.6699982,0.0329895,0.8290024
			c-0.0469971,0.1579971-0.1619873,0.2519989-0.345993,0.2829971c-0.1809998,0.0329971-0.3220062-0.0199966-0.4230042-0.1539993
			c-0.0979919-0.1350021-0.1819916-0.3949966-0.2509918-0.7860031C22.8307915,31.0210037,22.8197899,30.7450027,22.867794,30.586998
			 M21.9598045,32.961998l-0.3790131-1.095993l0.7460022-0.2590027l-0.0839996-0.2409973l-0.7480011,0.2599945l-0.2590027-0.7439957
			l0.8040009-0.2789993l-0.0820007-0.2369995l-1.0679932,0.3729935l0.8040009,2.3170013L21.9598045,32.961998z"/>
		<path class="st0" d="M14.3402977,29.4072037l0.5759888-0.4469986l0.6119995,0.4800034l-0.2899933,0.6719971l0.2180023,0.1719971
			l0.9799957-2.3479996l-0.2709961-0.2139969l-2.0410004,1.5130005L14.3402977,29.4072037z M16.1702843,27.9972076
			l-0.5389862,1.2109985l-0.5110016-0.4020004L16.1702843,27.9972076z M13.9352837,29.1452026l1.3140106-2.0679932
			l-0.2369995-0.1500015l-1.3140106,2.0680008L13.9352837,29.1452026z M13.0262871,28.5892029l1.0780029-1.9160004
			l0.5140076,0.2890015l0.1229858-0.2190018l-1.3019867-0.7319946l-0.1220093,0.2179947l0.5440063,0.3070068l-1.0769958,1.9160004
			L13.0262871,28.5892029z M10.9812889,27.550209l0.9020081-1.9670029l-0.1399994,2.3239975l0.3159943,0.1500015
			l1.0429993-2.2180023l-0.2389984-0.1139984l-0.8699951,1.9140015l0.125-2.2630005l-0.3320007-0.1539993l-1.0429993,2.2160034
			L10.9812889,27.550209z M10.4592857,27.3172073l0.0970001-0.2399979l-0.8860016-0.3550034l0.3400116-0.8359985
			l0.8190002,0.3300018l0.0909882-0.2310028l-0.8170013-0.3320007l0.2950134-0.7300034l0.8769989,0.3550034l0.0950012-0.2360001
			l-1.1269989-0.4550018l-0.9200134,2.2710037L10.4592857,27.3172073z M8.9742851,26.7312088l0.8460083-2.3000031
			l-0.2630005-0.0960007l-0.8480072,2.3010025L8.9742851,26.7312088z M8.403286,25.6102066
			c-0.0690002,0.1989975-0.1539917,0.3420029-0.2590027,0.4260025c-0.1079865,0.0859985-0.2279968,0.1049957-0.3600006,0.0619965
			c-0.1619873-0.0559998-0.2579956-0.1679993-0.2799988-0.3389969C7.482296,25.587204,7.528286,25.3272095,7.6452904,24.9792023
			c0.1179962-0.3569946,0.2380066-0.598999,0.3569946-0.7299957c0.1220093-0.1310043,0.2610016-0.1699982,0.4179993-0.1169968
			c0.1290131,0.0449982,0.2160034,0.1229935,0.2610016,0.237999c0.0440063,0.1149979,0.0410004,0.2519989-0.0149994,0.4119949
			l0.2519989,0.0820007l0.0100098-0.0289993c0.0739899-0.2269974,0.0739899-0.4199982,0.0019989-0.5839996
			c-0.072998-0.159996-0.2190094-0.2779999-0.4300079-0.3460007c-0.2529907-0.0859985-0.4700012-0.0510025-0.647995,0.102005
			c-0.1800079,0.1559982-0.3410034,0.4489975-0.4839935,0.8809967c-0.1380005,0.4120026-0.1809998,0.7360001-0.1320038,0.9720001
			c0.0500031,0.237999,0.1949921,0.3970032,0.4319916,0.4749985c0.227005,0.0739975,0.4240112,0.0540009,0.5950012-0.060997
			c0.1710052-0.1170044,0.3059998-0.3219986,0.4089966-0.6170044l-0.2569885-0.0859985L8.403286,25.6102066z M5.5622978,24.8682022
			l-0.0130005,0.0390015c-0.0680084,0.237999-0.0630035,0.4340057,0.0149994,0.5880051
			c0.0779877,0.1539993,0.2269897,0.262001,0.4459991,0.3239975c0.220993,0.0630035,0.4099884,0.0510025,0.5709991-0.0390015
			c0.1559906-0.0899963,0.2689972-0.2460022,0.3320007-0.4710007c0.0299988-0.1069946,0.0449982-0.2050018,0.0369873-0.2890015
			c-0.0049896-0.0859985-0.0319977-0.1660004-0.072998-0.2360001c-0.0369873-0.0569992-0.1640015-0.1660004-0.3839874-0.3279953
			L6.4162865,24.401207c-0.1439972-0.1050034-0.2310028-0.1949997-0.2610016-0.2710037
			c-0.0309906-0.0739975-0.0309906-0.1679993,0.0010071-0.2799988c0.0310059-0.1169968,0.0939941-0.1989975,0.1840057-0.2480011
			c0.0909882-0.0479965,0.197998-0.0559998,0.318985-0.022995c0.1180115,0.034996,0.2000122,0.0979996,0.2440033,0.1869965
			c0.0440063,0.090004,0.0469971,0.2040024,0.0100098,0.3339996l-0.006012,0.026001l0.2410126,0.0680008l0.0109863-0.0289993
			l0.0090027-0.0289993c0.053009-0.1900024,0.0410004-0.352005-0.0370026-0.4910049
			c-0.0779877-0.1379929-0.2149963-0.2360001-0.4039917-0.2889938c-0.2050018-0.0580063-0.378006-0.0450058-0.522995,0.0389938
			c-0.1470032,0.0839996-0.2480011,0.2290039-0.3079987,0.4340057c-0.0279999,0.1069946-0.0390015,0.2049942-0.030014,0.2929993
			c0.0090027,0.0899963,0.0380096,0.1719971,0.0880127,0.2480011c0.0279999,0.0469971,0.1299896,0.1309967,0.2999878,0.2559967
			c0.0620117,0.0449982,0.1090088,0.0800018,0.1430054,0.1050034c0.1430054,0.1039963,0.227005,0.1940002,0.2559967,0.2659988
			c0.0279999,0.0739975,0.0279999,0.1640015-0.0049896,0.2750015c-0.0380096,0.1369934-0.105011,0.2350006-0.2030029,0.2929993
			c-0.0960083,0.0569992-0.2109985,0.0670013-0.3399963,0.0299988c-0.1470032-0.0410004-0.2430115-0.1119995-0.2950134-0.215004
			c-0.0499878-0.1019974-0.0540009-0.2350006-0.0069885-0.3929977l0.0240021-0.0859985l-0.25-0.0719986L5.5622978,24.8682022z"/>
		<path class="st0" d="M43.5109978,25.1920013l0.0070038,0.0410004c0.0569916,0.2409973,0.1569977,0.4089966,0.298996,0.5059967
			c0.1430054,0.0979996,0.326004,0.1190033,0.5469971,0.0670013c0.223999-0.0530014,0.3830109-0.1559982,0.4790039-0.3129959
			c0.0930023-0.1560059,0.1159973-0.3450012,0.0619965-0.5719986c-0.026001-0.1090012-0.0619965-0.1970062-0.1109924-0.2710037
			c-0.0469971-0.072998-0.1060028-0.1289978-0.177002-0.1699982c-0.0590057-0.0340042-0.2259979-0.0670013-0.4949951-0.0999985
			c-0.0410004-0.0040054-0.0720062-0.0080032-0.0940094-0.012001c-0.1779938-0.0210037-0.2969971-0.0559998-0.3609924-0.1070023
			c-0.0650024-0.0490036-0.1080017-0.1330032-0.1350098-0.2440033c-0.0269928-0.1189957-0.0139923-0.2229996,0.0410004-0.3069992
			c0.0540009-0.0879974,0.1450043-0.1459961,0.2680054-0.1779938c0.1190033-0.0270004,0.2200012-0.0110016,0.302002,0.0449982
			c0.0839996,0.0589981,0.1409912,0.1549988,0.173996,0.2869949l0.0050049,0.026001l0.2449951-0.0569992l-0.0059967-0.0309982
			l-0.0050049-0.0309982c-0.0449982-0.1900024-0.1360016-0.3290024-0.2720032-0.4110031
			c-0.1369934-0.0839996-0.3009949-0.098999-0.4949951-0.0540009c-0.2039948,0.0490036-0.348999,0.1440048-0.4389954,0.2890015
			c-0.0839996,0.1439972-0.1029968,0.3199997-0.0540009,0.5289993c0.0249939,0.1060028,0.0639954,0.1949997,0.1150055,0.2700043
			c0.0519867,0.0719986,0.1179962,0.1309967,0.196991,0.1729965c0.0500031,0.0279999,0.1790009,0.0510025,0.3880005,0.0770035
			c0.076004,0.0069962,0.1329956,0.0169983,0.1759949,0.022995c0.177002,0.0220032,0.2960052,0.0589981,0.3540039,0.1080017
			c0.0610046,0.0479965,0.1029968,0.1279984,0.1289978,0.2419968c0.0330048,0.1380005,0.0220032,0.2580032-0.0349884,0.3550034
			c-0.0570068,0.0960007-0.1500092,0.1600037-0.2830048,0.1920013c-0.1470032,0.0369949-0.2669983,0.0209961-0.3619995-0.0449982
			c-0.0930023-0.0650024-0.1600037-0.1780014-0.1990051-0.340004l-0.0169983-0.0859985l-0.2570038,0.0599976L43.5109978,25.1920013z
			 M43.406002,25.9910049l-0.6260071-2.3690033l-0.2709961,0.0699997l0.625,2.3700027L43.406002,25.9910049z M42.4099998,26.2630005
			l-0.6190033-2.1119995l0.5630035-0.1640015l-0.0690002-0.2419968l-1.4329987,0.4199982l0.0699921,0.2399979l0.5980072-0.1749954
			l0.6210022,2.1110001L42.4099998,26.2630005z M40.4230003,26.8840027l-0.0550079-0.7269974l0.7360077-0.2460022
			l0.3999939,0.612999l0.2640076-0.0889969l-1.4190063-2.1100006l-0.3309937,0.1100006l0.1429901,2.5369949L40.4230003,26.8840027z
			 M40.2499962,24.5810013l0.7180023,1.1149979l-0.6190033,0.2050018L40.2499962,24.5810013z M39.833004,27.0890045
			l-0.7740021-2.0590057l0.548996-0.2070007l-0.0899963-0.2339935l-1.3959961,0.5249939l0.0889893,0.2369995l0.5859985-0.220993
			l0.776001,2.0589981L39.833004,27.0890045z M37.833004,27.8899994l-0.4250031-1.0039978l0.3209991-0.1350021
			c0.1730042-0.0739975,0.3059998-0.0960007,0.397995-0.0659943c0.0910034,0.0289993,0.177002,0.1169968,0.2570038,0.2669983
			c0.0269928,0.0550003,0.0639954,0.1289978,0.1089935,0.2249985c0.0910034,0.189003,0.1630096,0.3030014,0.2160034,0.3420029
			l0.3110046-0.1310043c-0.0859985-0.0299988-0.1889954-0.159996-0.3070068-0.4029999
			c-0.0469971-0.0909958-0.0849915-0.1660004-0.1129913-0.2180023c-0.076004-0.1409988-0.1600037-0.2369995-0.253006-0.2799988
			c-0.0910034-0.0449982-0.2019958-0.0449982-0.3320007-0.0019989c0.1260071-0.0950012,0.2070007-0.2050018,0.2369995-0.3239975
			c0.0299988-0.1190033,0.0130005-0.2560043-0.052002-0.4059982c-0.0809937-0.1949997-0.1999969-0.3160019-0.3529968-0.3650055
			c-0.1549988-0.0469971-0.3479919-0.0199966-0.5809937,0.0780029l-0.6320038,0.2669983l0.9519958,2.2580032L37.833004,27.8899994z
			 M36.9719963,25.8530045l0.3549957-0.151001c0.1620026-0.0680008,0.2940063-0.0880051,0.3950043-0.0540009
			c0.098999,0.0309982,0.1790009,0.1149979,0.2360077,0.2519989c0.0599976,0.1460037,0.0639954,0.2689972,0.0099945,0.3710022
			c-0.0540009,0.1009979-0.1679993,0.1909943-0.345993,0.2649994l-0.3070068,0.1329956L36.9719963,25.8530045z
			 M37.3379936,28.1100006l-0.1139984-0.2299957l-0.8569946,0.4259949l-0.401001-0.8089981L36.757,27.1050034l-0.1119995-0.2229996
			l-0.7910004,0.3919983l-0.3500061-0.7050018l0.8460083-0.4199982l-0.1119995-0.2279968l-1.0910034,0.5409927l1.0939941,2.1950073
			L37.3379936,28.1100006z M35.3749962,29.1570053c0.1900024-0.1170044,0.3070068-0.2590027,0.348999-0.427002
			c0.0410004-0.1699982,0.003006-0.3499985-0.1129913-0.5410004c-0.0930023-0.1490021-0.1920013-0.2480011-0.302002-0.2949982
			c-0.1090088-0.0510025-0.2320099-0.0490036-0.3690033,0c0.0820007-0.0880051,0.1210022-0.1820068,0.1230011-0.2870026
			c0.0019989-0.1040039-0.0359955-0.2190018-0.1119995-0.3460007c-0.1119995-0.1839981-0.2350006-0.2890015-0.3740082-0.3170013
			c-0.1409912-0.0289993-0.3069916,0.0179977-0.5029907,0.137001l-0.5469971,0.3320007l1.2789917,2.0920029L35.3749962,29.1570053z
			 M34.4139977,28.3570023l0.2570038-0.1549988c0.1600037-0.098999,0.2949982-0.1360016,0.4019928-0.1150055
			c0.1040039,0.0230026,0.2030029,0.1090012,0.2960052,0.2640076c0.0829926,0.1339951,0.1119995,0.2539978,0.0850067,0.3509979
			c-0.0250092,0.0979996-0.1090088,0.1899948-0.2510071,0.2779999l-0.2980042,0.1790009L34.4139977,28.3570023z
			 M33.8689995,27.461998l0.2299957-0.1429977c0.1529999-0.0909958,0.276001-0.1319962,0.3670044-0.1189957
			c0.0910034,0.0159988,0.1750031,0.0859985,0.2519989,0.2109985c0.0839996,0.1329956,0.1089935,0.2419968,0.0839996,0.3359985
			c-0.0279999,0.0899963-0.1139984,0.1800003-0.2599945,0.2699966l-0.2440033,0.1480026L33.8689995,27.461998z
			 M34.529995,29.7020035l-1.4179993-2l-0.2279968,0.1640015l1.4179993,1.9979935L34.529995,29.7020035z M34.1200066,29.961998
			l-0.1740112-0.1989975l-0.7350006,0.6480026l-1.4449921-1.6419983l-0.2070007,0.1809998l1.621994,1.8399963L34.1200066,29.961998z
			"/>
		<path class="st7" d="M35.2002983,41.1591034l0.0209961-0.0139999l1.2250061,1.4319992l-0.4430084,0.2949982L35.2002983,41.1591034
			z M34.3812981,40.8701019l1.5939941,3.7849998l0.6290131-0.4199982l-0.3480072-0.7830009l0.602005-0.4020004l0.5599976,0.6419983
			l0.6940002-0.4629974l-2.8119965-2.973999L34.3812981,40.8701019z M32.1842918,42.0441055l1.8160095,3.6009979
			l0.7720032-0.3860016l-1.8190002-3.6019974L32.1842918,42.0441055z M30.6652946,44.9721031l0.0870056-0.0320015
			c0.3619995-0.125,0.5139923-0.0519981,0.6369934,0.3030014l0.076004,0.2210007
			c0.1230011,0.3549995,0.0469971,0.5079994-0.3139954,0.6309967l-0.0879974,0.031002L30.6652946,44.9721031z
			 M30.1282921,43.4251022l0.0740051-0.026001c0.3159943-0.1089935,0.4550018-0.0479965,0.5599976,0.2580032l0.0680084,0.1949997
			c0.1059875,0.3089981,0.0299988,0.4419975-0.2840118,0.5489998l-0.0709991,0.0239983L30.1282921,43.4251022z
			 M29.1762962,43.1261063l1.3180084,3.8119965l1.0449982-0.3590012c0.7579956-0.2639999,1.0029907-0.6209984,0.7819977-1.262001
			l-0.1159973-0.3379974c-0.1460114-0.4190025-0.4680023-0.6070023-0.9250031-0.5349998
			c0.3690033-0.2220001,0.4749908-0.5510025,0.3240051-0.9880028l-0.0540009-0.1579971
			c-0.2210083-0.6429977-0.6290131-0.7740021-1.3880005-0.512001L29.1762962,43.1261063z M25.2642937,43.6691055
			l0.5330048,3.9979973l0.6649933-0.0900002l-0.4379883-3.281002l0.0579987-0.0079994l0.8619995,3.2229996l0.7639923-0.0999985
			l0.0429993-3.3479996l0.052002-0.0050011l0.4389954,3.281002l0.70401-0.0940018l-0.5319977-3.9980011l-1.1480103,0.1520004
			l-0.0410004,2.9300003l-0.0410004,0.0040016l-0.7559967-2.8199959L25.2642937,43.6691055z M24.3773003,44.9231033
			c0.0589905-1.0410004-0.1670074-1.4420013-1.0810089-1.4919968c-0.9119873-0.0530014-1.1819916,0.317997-1.2409973,1.3589973
			l-0.0759888,1.2989998c-0.0580139,1.0389977,0.1619873,1.4449997,1.0819855,1.4979973
			c0.9140015,0.0530014,1.1830139-0.3260002,1.2420044-1.3649979L24.3773003,44.9231033z M23.5332909,44.6901016
			l-0.0970001,1.6660004c-0.0219879,0.4259987-0.0679932,0.6199989-0.3399963,0.6040001
			c-0.2769928-0.0159988-0.29599-0.2130013-0.2709961-0.6389999l0.0950012-1.6660004
			c0.0240021-0.4259987,0.0709991-0.6189995,0.3419952-0.6030006
			C23.5402946,44.0671005,23.5572929,44.2651024,23.5332909,44.6901016 M19.7602959,42.8521042l-0.8829956,3.9379997
			l1.8009949,0.4019966l0.1370087-0.6069984l-0.9650116-0.2150002l0.7440033-3.3299942L19.7602959,42.8521042z
			 M18.3872948,43.8151016c0.3870087-0.9639969,0.298996-1.4179993-0.548996-1.7569962
			c-0.8460083-0.3420029-1.2210083-0.0770035-1.6110077,0.8899994l-0.4839935,1.2069969
			c-0.3889923,0.9690018-0.3090057,1.4220009,0.5460052,1.7659988c0.8479919,0.3400002,1.2249908,0.0680008,1.6139984-0.8989983
			L18.3872948,43.8151016z M17.6612968,43.3231049l-0.6230011,1.5509987
			c-0.1589966,0.3950005-0.2639923,0.5639992-0.5159912,0.4650002c-0.2580109-0.1060028-0.2110138-0.2970009-0.053009-0.6940002
			l0.6220093-1.5479965c0.1589966-0.3950043,0.2630005-0.5650024,0.5169983-0.4630051
			C17.8652916,42.7391052,17.8193016,42.9311066,17.6612968,43.3231049 M15.4793053,42.2061005
			c0.4509888-0.7339935,0.3789978-1.1459961-0.3110046-1.5719986c-0.7850037-0.4829941-1.1970062-0.2829971-1.7450104,0.6030045
			l-0.6789856,1.1080017c-0.5480042,0.885994-0.5480042,1.3469925,0.2350006,1.8299942
			c0.7069855,0.4329987,1.118988,0.3139992,1.5709991-0.4220009l0.1179962-0.1899986l-0.7299957-0.4489975l-0.1190033,0.1959991
			c-0.197998,0.3239975-0.3300018,0.4489975-0.5279999,0.3259964c-0.2160034-0.1329956-0.1380005-0.3279953,0.0839996-0.685997
			l0.875-1.4219971c0.220993-0.3570023,0.3499908-0.5130005,0.5670013-0.3810043
			c0.2169952,0.1350021,0.1369934,0.3209991-0.0859985,0.6800003l-0.0450134,0.0740051l0.7089996,0.4399948L15.4793053,42.2061005z"
			/>
		<path class="st7" d="M45.3986931,16.4421997l-3.8410034,1.4589996l0.6949921,1.8239975l0.5900116-0.223999l-0.3590088-0.947998
			l1.1190033-0.427002l0.3079987,0.8120041l0.5919952-0.223999l-0.3079987-0.8130035l0.9430084-0.3590012l0.3320007,0.8710022
			l0.5930023-0.2249985L45.3986931,16.4421997z M43.59869,14.2702036l0.0390015,0.072998
			c0.1799927,0.3180008,0.1409912,0.4799957-0.1699982,0.6520004l-0.1940002,0.1090012
			c-0.3079987,0.1719971-0.4680023,0.1229935-0.6480103-0.1970062l-0.0390015-0.0719986L43.59869,14.2702036z M43.699688,13.2042017
			l-3.5839996,2.0019989l0.4300079,0.7689972l1.5159912-0.8450012l0.0469971,0.090004
			c0.2120056,0.3799973,0.1330109,0.4680023-0.1819916,0.6439972l-1.098999,0.6150045l0.4570007,0.8190002l0.8819885-0.4930038
			c0.6080017-0.3389969,0.756012-0.6559982,0.4630127-1.2959967c0.3969879,0.5309973,0.7519989,0.6169958,1.2579956,0.3339996
			l0.1499939-0.0820007c0.602005-0.3379974,0.651001-0.7929993,0.2190094-1.5630035L43.699688,13.2042017z M40.199688,12.3331995
			l0.0630035,0.0800018c0.2630005,0.3259964,0.2519989,0.5039978-0.0449982,0.7439957l-0.1860046,0.1500015
			c-0.2960052,0.2410049-0.473999,0.2109985-0.7359924-0.1149979l-0.0640106-0.0780029L40.199688,12.3331995z
			 M41.4986839,11.2902002l0.0510101,0.064003c0.2289886,0.284996,0.2269897,0.4440002-0.0330048,0.6529999l-0.1640015,0.1299973
			c-0.2579956,0.2080002-0.4160004,0.1740036-0.6450043-0.1070023l-0.0499878-0.0639954L41.4986839,11.2902002z
			 M41.4146843,10.2231989l-3.196991,2.5790024l0.7579956,0.9389954c0.5529938,0.6870041,0.9940033,0.8180008,1.5350037,0.387001
			l0.2829895-0.2289963c0.3510132-0.2830048,0.4100037-0.6740036,0.1580048-1.112999
			c0.3619995,0.3050003,0.7210083,0.3069992,1.0899963,0.0079956l0.1350098-0.1079941
			c0.5370026-0.4310074,0.5079956-0.8860016-0.0449982-1.5740051L41.4146843,10.2231989z M39.7826958,8.6551981
			l-2.7980042,3.0060043l0.6900024,0.6439972l2.8009949-3.0049973L39.7826958,8.6551981z M37.6046867,6.9051981
			l-2.4989929,3.2600021l1.6039886,1.2300034l0.3850098-0.5020065l-0.8590088-0.659996L38.34869,7.4751978L37.6046867,6.9051981z
			 M31.6376915,4.6652002L31.72369,4.6941996c0.345993,0.1210022,0.4360046,0.262001,0.326004,0.5739975l-0.654007,1.864006
			c-0.1119995,0.3099976-0.2700043,0.362999-0.6170044,0.2399979l-0.0839996-0.0270004L31.6376915,4.6652002z M30.9516869,3.7511988
			l-1.3630066,3.875l0.855011,0.3010025c0.5479889,0.1910019,0.9380035,0.2750015,1.2859955,0.1070023
			c0.3300018-0.1620026,0.5160065-0.5,0.7089996-1.0390015l0.3390045-0.9690018
			c0.1900024-0.5370026,0.2559967-0.9179993,0.095993-1.2460022c-0.173996-0.3649979-0.522995-0.5369949-1.0679932-0.7269974
			L30.9516869,3.7511988z M28.3276939,3.9481974l0.026001,0.0040054L28.2856865,5.872201l-0.5740051-0.0940018L28.3276939,3.9481974
			z M27.8816948,3.157197l-1.5080109,3.9140015l0.8160095,0.1350021l0.2969971-0.8239975l0.7839966,0.1299973L28.246685,7.3822031
			l0.9020081,0.147995l-0.0750122-4.1759949L27.8816948,3.157197z M24.3686943,3.6121988h0.0859985
			c0.368988-0.0059967,0.5029907,0.0960007,0.5089874,0.4260025l0.0230103,1.973999
			c0.0049896,0.3310013-0.1269989,0.435997-0.4960022,0.4400024l-0.0879974,0.0019989L24.3686943,3.6121988z M23.4086876,2.9911966
			l0.0529938,4.1070023l0.9070129-0.0130005c0.5829926-0.0059967,0.973999-0.0629959,1.2429962-0.3399963
			C25.8686943,6.4792032,25.926693,6.0962,25.9186821,5.5262003l-0.0130005-1.0270004
			c-0.0049896-0.5690002-0.0759888-0.9489975-0.3369904-1.2030029c-0.2910004-0.2819977-0.677002-0.322998-1.2519989-0.3169937
			L23.4086876,2.9911966z M21.2346916,3.2702036l0.5690002,4.0709991l0.9329987-0.1330032l-0.5680084-4.0670013
			L21.2346916,3.2702036z M20.2976952,4.3682032c-0.1680145-0.6230011-0.6090088-0.8460007-1.2830048-0.6640015
			c-0.7460022,0.2029953-1.0780029,0.6989975-0.9410095,1.2109985l0.0950012,0.3470001
			c0.1070099,0.3909988,0.326004,0.6019974,0.7389984,0.7470016l0.4430084,0.1500015
			c0.3240051,0.1069946,0.5500031,0.1839981,0.6309967,0.4860001l0.0420074,0.1549988
			c0.0649872,0.2419968,0.0359955,0.348999-0.1660004,0.4039993c-0.1970062,0.0550003-0.2900085-0.0270004-0.355011-0.2639999
			l-0.0909882-0.3359985l-0.9110107,0.2459946l0.0780029,0.2910004c0.1880035,0.6959991,0.5709991,0.9160004,1.3890076,0.6959991
			c0.7910004-0.2129974,1.125-0.6779938,0.9609985-1.2839966l-0.0670013-0.2420044
			c-0.0639954-0.2360001-0.1480103-0.4079971-0.2940063-0.5329971c-0.1719971-0.1500015-0.375-0.1949997-0.5650024-0.262001
			l-0.4389954-0.1520004c-0.3069916-0.1019974-0.4810028-0.1949997-0.5469971-0.4319992l-0.0690002-0.2569962
			c-0.0559998-0.2050018-0.0270081-0.3010025,0.1430054-0.3479996c0.1719971-0.0470047,0.25,0.0209961,0.3039856,0.2259979
			l0.0950012,0.3519974l0.8880005-0.2399979L20.2976952,4.3682032z M15.4286919,5.7722025l0.0759888-0.0350037
			c0.3320007-0.1559982,0.4880066-0.1029968,0.6390076,0.215004l0.0930023,0.2029953
			c0.1490021,0.3199997,0.0889893,0.4749985-0.2440033,0.6310043l-0.0740051,0.034996L15.4286919,5.7722025z M14.371685,5.5912027
			l1.7380066,3.7199936l0.7969971-0.3709946l-0.7319946-1.5719986l0.0919952-0.0430069
			c0.3950043-0.185997,0.4790039-0.0979996,0.6309967,0.2280045l0.5330048,1.1429977l0.848999-0.3959961L17.8536797,7.384202
			c-0.29599-0.6310043-0.598999-0.8030014-1.2609863-0.5569992C17.1536827,6.4712,17.2646904,6.122201,17.0186882,5.5962
			l-0.0740051-0.1559982c-0.2910004-0.625-0.7409973-0.7050018-1.5399933-0.3320007L14.371685,5.5912027z M11.6526909,7.3481989
			l2.3389893,3.3769989l1.605011-1.112999l-0.3600006-0.5189972L14.4036827,9.669198l-0.6839905-0.9830017l0.7149963-0.4939957
			l-0.3619995-0.5210037l-0.7120056,0.4940033l-0.5769958-0.8300018l0.7660065-0.5299988l-0.3600006-0.5209961L11.6526909,7.3481989
			z M8.9376945,9.7101984l3.3989868,2.4430008l0.7340088-0.6800003l-2.2480011-3.5209961l-0.5780029,0.5389938l1.7910004,2.5020065
			l-0.0460052,0.0429993L9.6136894,9.0792017L8.9376945,9.7101984z M7.7006798,11.1362009l3.1360016,2.6500015l0.6090088-0.7210007
			l-3.1360016-2.6520004L7.7006798,11.1362009z M5.4656944,14.3152018l3.4259949,2.2539968l0.4199982-0.6350012
			l-2.9380035-1.8569946l0.0339966-0.0530014l3.2690125,1.3559952l0.6819916-1.0369949l-3.423996-2.2580032l-0.423996,0.6399994
			l2.9409943,1.852005l-0.0350037,0.0550003l-3.2749939-1.3440018L5.4656944,14.3152018z M3.8406947,17.9911957l2.512985,1.0270004
			c0.9760132,0.3990021,1.4500122,0.3130035,1.8230133-0.6029968c0.3730011-0.9079971,0.1079865-1.3190002-0.8730011-1.7190018
			L4.7886925,15.669198l-0.3560028,0.874999l2.6860046,1.0950012c0.4029999,0.1660004,0.5759888,0.2700043,0.4679871,0.5279999
			C7.4816856,18.4301987,7.2836876,18.3862,6.8816795,18.221199l-2.6869965-1.0970001L3.8406947,17.9911957z"/>
	</g>
</g>
</svg>
